<?xml version="1.0" encoding="utf-8"?>
<!-- Generator: Adobe Illustrator 14.0.0, SVG Export Plug-In . SVG Version: 6.00 Build 43363)  -->
<!DOCTYPE svg PUBLIC "-//W3C//DTD SVG 1.1//EN" "http://www.w3.org/Graphics/SVG/1.1/DTD/svg11.dtd">
<svg version="1.1" xmlns="http://www.w3.org/2000/svg" xmlns:xlink="http://www.w3.org/1999/xlink" x="0px" y="0px"
	 width="299.65px" height="396.757px" viewBox="0 0 299.65 396.757" enable-background="new 0 0 299.65 396.757"
	 xml:space="preserve">
<g id="Trunk">
	<rect x="131.87" y="281.709" fill="#653614" width="31.028" height="115.048"/>
</g>
<g id="D-Shape_1_">
	<g>
		<path fill="#F26739" d="M266.324,36.487C248.302,16.583,223.078,6.113,214.5,2.963v8.357v2.46l-2.413,0.482
			c-28.006,5.594-34.598,14.953-38.259,24.568c4.008-3.655,8.882-5.503,14.639-5.503c17.621,0.191,32.848,11.013,45.68,32.464
			c12.834,21.452,19.25,48.074,19.25,79.869c0,67.781-29.173,106.574-87.475,116.423l-0.001,0.619l-0.023,15.686
			c44.458-4.463,77.746-20.737,99.852-48.837c22.602-28.73,33.9-61.386,33.9-97.969C299.459,92.51,288.352,60.812,266.324,36.487z"
			/>
	</g>
</g>
<g id="V-Shape">
	<path fill="#6BBE45" d="M157.589,12.144c-16.354,13.306-20.26,27.609-20.26,27.609s-5.459,9.612-5.459,60.357
		c0,5.921,0,33.421,0,33.421v129c-52.671-13.216-79.007-57.178-79.007-132.067c0-69.143,21.164-109.173,63.493-120.09V0.031
		C82.455,1.755,54.586,14.588,32.752,38.529S0,93.403,0,131.326c0.192,42.328,12.258,76.612,36.2,102.852
		c23.941,26.24,55.832,41.084,95.67,44.531h31.028l0.023-16.011l0,0l0.189-129.167c0,0-0.096-25.421,0-37.022
		s0.522-38.239,5.021-50.414S173.649,18.88,211.5,11.32c0-2.383,0-4.422,0-9.369C196.875-0.969,174.796-2.232,157.589,12.144z"/>
</g>
</svg>
